<svg id="Layer_1" data-name="Layer 1" xmlns="http://www.w3.org/2000/svg" viewBox="0 0 613.29 154.61"><defs><style>.cls-1{fill:#00a7d7;}.cls-2{fill:#fff;}</style></defs><title>JETZON-reverseTZ</title><path class="cls-1" d="M188.83,156H111.18a6.89,6.89,0,0,1-7.06-7.06V43.51c0-4.29,3.27-7.06,7.31-7.06H185.3c4.29,0,7.56,2.77,7.56,7.06v2.77c0,4.29-3.27,7.06-7.56,7.06H122.77v34.8h57.49c4.28,0,7.56,2.77,7.56,7.06V98c0,4.28-3.28,7.06-7.56,7.06H122.77v34h66.06c4.29,0,7.56,2.77,7.56,7.05v2.78C196.39,153.18,193.12,156,188.83,156Z" transform="translate(-4.02 -2.14)"/><path class="cls-2" d="M273.76,23.13H236.94V147.87a8.39,8.39,0,0,1-8.37,8.37h-3.9a8.22,8.22,0,0,1-8.37-8.37V23.13H66.53c-4.74,0-8.65-5.37-8.65-10.11V10c0-4.75,3.91-7.81,8.37-7.81H273.48c4.75,0,8.65,3.06,8.65,7.81V13C282.13,17.76,278.23,23.13,273.76,23.13Z" transform="translate(-4.02 -2.14)"/><path class="cls-2" d="M608.93,156.75H294.41c-3.91,0-8.09-3.35-8.09-7.53v-4.47c0-3.35,1.11-5.3,3.9-8.65l77.28-113H298.59c-4.46,0-8.37-3.06-8.37-7.81V10c0-4.75,3.91-7.81,8.37-7.81h88.15c4.75,0,8.09,3.34,8.09,7.53V15c0,3.91-1,8.37-2.71,10.6l-77,110.11h293.8c4.75,0,8.37,5.38,8.37,10.12v3.07C617.3,153.68,613.68,156.75,608.93,156.75Z" transform="translate(-4.02 -2.14)"/><path class="cls-1" d="M473,122.67H431.58a28.38,28.38,0,0,1-28.23-28.48V30.11c0-15.51,13.48-28,29.25-28H472c15.77,0,29.24,12.46,29.24,28V94.19A28.54,28.54,0,0,1,473,122.67Zm9.41-89.51a14.12,14.12,0,0,0-14-14H436.16a14,14,0,0,0-14,14V91.65a13.73,13.73,0,0,0,13.73,14h32.55a13.94,13.94,0,0,0,14-14Z" transform="translate(-4.02 -2.14)"/><path class="cls-1" d="M608.52,122.31H605c-4.33,0-7.63-4.35-7.63-4.35h0L539.1,38.19v76.49a7.65,7.65,0,0,1-7.63,7.63h-3.56a7.49,7.49,0,0,1-7.63-7.63V10.28a6.81,6.81,0,0,1,7.12-7.12H531c3.3,0,5.59,1.53,7.63,3.82l58.74,81.44V10.79A7.49,7.49,0,0,1,605,3.16h3.56a7.65,7.65,0,0,1,7.62,7.63V114.68A7.64,7.64,0,0,1,608.52,122.31Z" transform="translate(-4.02 -2.14)"/><path class="cls-1" d="M76.22,37.47H72.69A7.43,7.43,0,0,0,65.13,45v79.71A13.82,13.82,0,0,1,51.26,138.6h-15a13.6,13.6,0,0,1-13.61-13.72l.09-12.3c.06-4.29-3.45-6.26-7.48-6.32l-3.53,0a7.42,7.42,0,0,0-7.66,7.46L4,122.55H4v4.71A28.14,28.14,0,0,0,32,155.5H55.8a28.31,28.31,0,0,0,28-28.24V45A7.59,7.59,0,0,0,76.22,37.47Z" transform="translate(-4.02 -2.14)"/></svg>